<svg height="512pt" viewBox="-1 0 512 512.0008" width="512pt" xmlns="http://www.w3.org/2000/svg"><path d="m500.652344 123.777344-256.859375 326.148437-.089844-.101562c15.269531-20.328125 24.730469-45.28125 25.789063-72.414063.011718-.410156.03125-.808594.042968-1.210937.808594-26.992188 6.167969-53.652344 16.03125-78.785157l11.679688-29.773437-25.503906 8.160156c-16.359376 5.230469-32.8125-7.789062-31.46875-24.910156l.898437-11.441406-17.710937 2.890625c-21.761719 3.539062-43.894532 3.679687-65.785157 1.03125-3.878906-.472656-7.890625-.730469-12.210937-.851563-28.960938-.789062-56.136719 7.761719-78.4375 22.914063l-.390625-.410156 402.144531-255.019532h31.871094zm0 0" fill="#ffcb7c"/><path d="m297.246094 267.640625-25.507813 8.160156c-16.359375 5.234375-32.804687-7.785156-31.460937-24.910156l.894531-11.4375-17.707031 2.886719c-21.761719 3.542968-43.898438 3.683594-65.785156 1.035156-3.882813-.472656-7.898438-.738281-12.214844-.855469-73.214844-1.984375-134.996094 55.640625-135.460938 128.878907-.453125 71.40625 56.753906 129.554687 127.792969 130.625 70.140625 1.0625 128.957031-54.523438 131.695313-124.617188.019531-.402344.03125-.804688.042968-1.203125.808594-26.992187 6.167969-53.652344 16.03125-78.789063zm0 0" fill="#f0838f"/><path d="m220.199219 376.292969c-5.222657 5.222656-8.160157 12.308593-8.160157 19.695312v15.742188c0 7.683593-3.15625 15.050781-8.769531 20.300781-16.042969 14.996094-37.933593 23.808594-61.878906 22.640625-43.371094-2.117187-78.371094-37.457031-80.113281-80.847656-1.378906-34.375 17.804687-64.425781 46.257812-78.828125 8.183594-4.144532 18.128906-2.410156 24.613282 4.078125l5.472656 5.472656c8.367187 8.371094 21.9375 8.371094 30.308594.003906 7.40625-7.410156 19.164062-8.484375 27.609374-2.285156 15.726563 11.542969 27.300782 28.40625 32.082032 47.941406 2.292968 9.375-.601563 19.261719-7.421875 26.085938zm0 0" fill="#e5ecec"/><path d="m151.320312 381.976562c0 13.996094-11.347656 25.339844-25.339843 25.339844-13.996094 0-25.339844-11.34375-25.339844-25.339844 0-13.996093 11.34375-25.339843 25.339844-25.339843 13.992187 0 25.339843 11.34375 25.339843 25.339843zm0 0" fill="#8291a8"/><path d="m217.308594 376.113281c0 7.777344-6.304688 14.078125-14.078125 14.078125-7.777344 0-14.078125-6.300781-14.078125-14.078125 0-7.773437 6.300781-14.078125 14.078125-14.078125 7.773437 0 14.078125 6.304688 14.078125 14.078125zm0 0" fill="#8291a8"/><path d="m145.667969 464.777344c24.054687 0 46.777343-8.9375 64.429687-25.441406 7.589844-7.097657 11.941406-17.15625 11.941406-27.605469v-15.742188c0-2.300781.441407-4.527343 1.269532-6.605469.765625-1.152343 1.433594-2.378906 1.992187-3.660156.585938-.832031 1.234375-1.625 1.96875-2.359375 9.292969-9.292969 13.152344-22.910156 10.066407-35.53125-5.25-21.453125-17.992188-40.5-35.878907-53.628906-12.273437-9.003906-29.726562-7.597656-40.597656 3.277344-2.160156 2.15625-5.027344 3.347656-8.082031 3.347656-3.054688 0-5.921875-1.191406-8.082032-3.351563l-5.472656-5.472656c-9.632812-9.636718-24.183594-12.019531-36.207031-5.929687-32.90625 16.660156-53.210937 51.261719-51.730469 88.152343.941406 23.488282 10.648438 45.695313 27.332032 62.539063 16.6875 16.839844 38.808593 26.75 62.285156 27.894531 1.59375.078125 3.183594.117188 4.765625.117188zm61.566406-87.945313c-.433594.730469-.832031 1.480469-1.214844 2.238281-.730469.691407-1.707031 1.121094-2.789062 1.121094-2.25 0-4.078125-1.828125-4.078125-4.074218 0-2.25 1.828125-4.078126 4.078125-4.078126 2.246093 0 4.078125 1.828126 4.078125 4.078126 0 .242187-.03125.480468-.074219.714843zm-135.960937-3.40625c-1.167969-29.089843 14.839843-56.375 40.78125-69.507812 1.558593-.792969 3.246093-1.175781 4.925781-1.175781 2.941406 0 5.871093 1.171874 8.097656 3.402343l5.472656 5.476563c5.9375 5.9375 13.828125 9.207031 22.222657 9.207031h.003906c8.394531 0 16.289062-3.269531 22.226562-9.207031 3.953125-3.953125 10.238282-4.507813 14.617188-1.292969 14.105468 10.351563 24.152344 25.359375 28.285156 42.253906.386719 1.585938.53125 3.210938.457031 4.820313-4.140625-3.351563-9.40625-5.367188-15.132812-5.367188-13.277344 0-24.078125 10.800782-24.078125 24.078125 0 12.878907 10.160156 23.425781 22.886718 24.050781v11.566407c0 4.929687-2.042968 9.667969-5.601562 12.996093-14.828125 13.863282-34.195312 20.953126-54.558594 19.957032-38.066406-1.859375-69.078125-33.160156-70.605468-71.257813zm0 0"/><path d="m161.320312 381.976562c0-19.484374-15.855468-35.339843-35.339843-35.339843-19.488281 0-35.34375 15.855469-35.34375 35.339843 0 19.488282 15.855469 35.339844 35.34375 35.339844 19.484375 0 35.339843-15.851562 35.339843-35.339844zm-35.339843 15.339844c-8.460938 0-15.339844-6.882812-15.339844-15.339844 0-8.457031 6.878906-15.339843 15.339844-15.339843 8.457031 0 15.335937 6.882812 15.335937 15.339843 0 8.457032-6.878906 15.339844-15.335937 15.339844zm0 0"/><path d="m365.011719 120.238281-87.734375 71.070313c-4.289063 3.476562-4.953125 9.777344-1.476563 14.066406 1.980469 2.441406 4.867188 3.707031 7.777344 3.707031 2.210937 0 4.4375-.730469 6.289063-2.230469l87.734374-71.074218c4.292969-3.472656 4.953126-9.773438 1.476563-14.0625-3.476563-4.296875-9.777344-4.957032-14.066406-1.476563zm0 0"/><path d="m320.640625 113.957031c1.832031 0 3.683594-.503906 5.34375-1.558593l106.628906-67.617188c4.664063-2.957031 6.046875-9.136719 3.089844-13.800781-2.957031-4.664063-9.132813-6.050781-13.800781-3.089844l-106.628906 67.617187c-4.664063 2.960938-6.046876 9.136719-3.089844 13.800782 1.90625 3.003906 5.144531 4.648437 8.457031 4.648437zm0 0"/><path d="m506.839844 115.921875c-4.339844-3.417969-10.625-2.671875-14.046875 1.667969l-147.085938 186.765625c-3.417969 4.339843-2.667969 10.625 1.667969 14.042969 1.835938 1.445312 4.015625 2.144531 6.183594 2.144531 2.957031 0 5.890625-1.308594 7.863281-3.8125l147.085937-186.765625c3.417969-4.339844 2.671876-10.628906-1.667968-14.042969zm0 0"/><path d="m400.328125 114.570312c4.117187 0 7.890625-2.632812 9.347656-6.472656s.355469-8.347656-2.753906-11.050781c-3.199219-2.785156-7.914063-3.257813-11.59375-1.140625-3.660156 2.105469-5.640625 6.46875-4.800781 10.613281.933594 4.613281 5.078125 8.050781 9.800781 8.050781zm0 0"/><path d="m405.195312 178.214844c2.605469 0 5.210938-1.011719 7.171876-3.03125l57.03125-58.640625c3.851562-3.960938 3.765624-10.292969-.195313-14.140625-3.960937-3.851563-10.292969-3.765625-14.144531.195312l-57.03125 58.640625c-3.851563 3.960938-3.761719 10.292969.199218 14.144531 1.941407 1.890626 4.457032 2.832032 6.96875 2.832032zm0 0"/><path d="m421.027344 90.351562c1.976562 2.398438 4.839844 3.640626 7.722656 3.640626 2.238281 0 4.492188-.75 6.355469-2.285157l71.90625-59.261719c4.261719-3.515624 4.871093-9.816406 1.355469-14.078124-3.511719-4.261719-9.8125-4.871094-14.078126-1.359376l-71.90625 59.265626c-4.261718 3.515624-4.867187 9.816406-1.355468 14.078124zm0 0"/><path d="m379.703125 195.75c-4.027344-3.777344-10.355469-3.574219-14.136719.457031l-38.601562 41.195313c-3.777344 4.03125-3.570313 10.359375.460937 14.136718 1.929688 1.808594 4.382813 2.703126 6.835938 2.703126 2.667969 0 5.328125-1.0625 7.296875-3.164063l38.605468-41.191406c3.777344-4.03125 3.570313-10.359375-.460937-14.136719zm0 0"/><path d="m451.742188 30.816406c1.832031 0 3.6875-.503906 5.347656-1.554687l17.046875-10.816407c4.664062-2.957031 6.050781-9.136718 3.09375-13.800781-2.960938-4.660156-9.136719-6.046875-13.804688-3.085937l-17.046875 10.8125c-4.664062 2.957031-6.050781 9.136718-3.09375 13.800781 1.90625 3.003906 5.144532 4.644531 8.457032 4.644531zm0 0"/><path d="m493.335938 63.761719-12.496094 13.414062c-3.765625 4.039063-3.542969 10.367188.5 14.132813 1.925781 1.796875 4.375 2.683594 6.816406 2.683594 2.675781 0 5.347656-1.070313 7.316406-3.183594l12.496094-13.410156c3.765625-4.042969 3.539062-10.371094-.5-14.132813-4.042969-3.765625-10.367188-3.542969-14.132812.496094zm0 0"/><path d="m333.628906 335.855469c-4.339844-3.417969-10.625-2.667969-14.046875 1.671875l-41.066406 52.140625c.546875-4.371094.863281-8.765625 1.015625-13.167969.265625-8.910156 1.058594-17.734375 2.339844-26.449219 2.472656-16.8125 6.8125-33.207031 13.003906-48.984375l11.679688-29.773437c1.410156-3.59375.628906-7.675781-2.015626-10.492188-.082031-.089843-.179687-.164062-.265624-.25-.253907-.25-.507813-.503906-.785157-.722656-2.589843-2.070313-6.074219-2.742187-9.289062-1.714844l-25.507813 8.160157c-7.429687 2.378906-15.6875-1.910157-17.917968-9.421876-1.175782-3.96875-.265626-8.550781.054687-12.605468.101563-1.339844.207031-2.675782.3125-4.011719.242187-3.0625-.9375-6.066406-3.199219-8.144531-2.261718-2.082032-5.351562-3.003906-8.382812-2.511719l-11.382813 1.859375c-4.527343.734375-9.046875 1.503906-13.597656 2.078125-17.917969 2.257813-36.617187 2.234375-55.699219-.074219-7.40625-.898437-14.925781-1.148437-22.382812-.882812l148.066406-93.894532c4.664062-2.957031 6.050781-9.136718 3.089844-13.800781-2.957032-4.664062-9.132813-6.050781-13.800782-3.089843l-212.570312 134.804687c-1.042969.660156-1.933594 1.511719-2.65625 2.480469-5.667969 4.074218-11.082031 8.582031-16.195312 13.527344-27.121094 26.226562-42.1875 61.296874-42.42578175 98.75-.38281225 60.167968 37.58203175 113.6875 94.46484375 133.179687 5.222656 1.789063 10.914062-.996094 12.703125-6.222656 1.789063-5.222657-.996094-10.910157-6.222656-12.699219-48.742188-16.703125-81.273438-62.566406-80.945313-114.132812.203125-32.03125 13.105469-62.039063 36.332032-84.5 4.960937-4.796876 10.253906-9.117188 15.820312-12.957032.164062-.097656.332031-.191406.492188-.300781 17.40625-11.824219 37.210937-18.875 57.957031-20.734375 8.582031-.761719 17.3125-.703125 25.871093.332031 20.59375 2.496094 40.820313 2.527344 60.253907.105469.015625-.003906.035156-.003906.050781-.007812.117188-.011719.234375-.03125.347656-.046876 2.664063-.335937 5.308594-.714843 7.941406-1.140624l5.15625-.84375c-.285156 6.824218 1.476563 13.472656 4.9375 19.164062.347657.566406.710938 1.128906 1.089844 1.671875 1.898438 2.75 4.214844 5.234375 6.90625 7.367187 6.394532 5.058594 14.257813 7.585938 22.191406 7.355469 3.164063-.09375 6.339844-.609375 9.441407-1.597656l5.453125-1.746094-3.996094 10.175781c-9.605469 24.488282-15.148438 50.324219-16.5 76.867188-.328125 6.429688-.53125 12.804688-1.449219 19.191406-.984375 6.824219-2.605469 13.605469-4.808593 20.136719-1.230469 3.640625-2.605469 7.226563-4.164063 10.738281-3.625 8.125-8.179687 15.878906-13.621094 23.128906-.207031.269532-.390625.550782-.5625.839844-15.0625 19.773438-36.257812 34.902344-61.300781 42.394532-5.292969 1.582031-8.300781 7.15625-6.714844 12.445312 1.296875 4.335938 5.269532 7.140625 9.574219 7.140625.949219 0 1.914063-.136719 2.871094-.421875 29.164062-8.722656 53.855469-26.335938 71.417969-49.363281.230468-.234375.453124-.480469.65625-.742188l83.648437-106.214843c3.417969-4.335938 2.671875-10.625-1.667969-14.042969zm0 0"/><path d="m147.039062 498.199219c-1.613281-3.867188-5.582031-6.386719-9.773437-6.160157-4.167969.226563-7.8125 3.101563-9.03125 7.082032-1.21875 3.972656.253906 8.476562 3.609375 10.9375 3.277344 2.40625 7.769531 2.597656 11.230469.457031 4.105469-2.539063 5.824219-7.855469 3.964843-12.316406zm0 0"/></svg>