<?xml version="1.0"?>
<svg xmlns="http://www.w3.org/2000/svg" id="Layer_1" height="512px" viewBox="0 0 512 512" width="512px" data-name="Layer 1"><g><path d="m449.333 201.036-128.949 128.95a12.048 12.048 0 0 1 -17.038-17.038l88.586-88.586a24.887 24.887 0 1 0 -35.195-35.195l-45.109 45.11a12.048 12.048 0 0 1 -17.038-17.038l169.755-169.755a24.887 24.887 0 1 0 -35.2-35.195l-107.427 107.433a12.047 12.047 0 1 1 -17.038-17.037l36.208-36.207a24.887 24.887 0 0 0 -35.2-35.195l-60.5 60.5-.034.034-50.754 50.756-.014.015-133.923 133.924a134.759 134.759 0 0 0 95.137 230.41 137.394 137.394 0 0 0 97.327-40.281l231.003-231.008a24.464 24.464 0 1 0 -34.6-34.6zm26.112 26.111-231.007 231.008c-48.238 48.245-126.578 49.15-174.626 2.022a123.409 123.409 0 0 1 -.865-175.177l161.709-161.711 83.521-83.521a12.887 12.887 0 0 1 18.223 18.225l-36.2 36.207a24.047 24.047 0 1 0 34 34.007l107.435-107.433a12.887 12.887 0 1 1 18.225 18.226l-169.76 169.754a24.047 24.047 0 0 0 34.008 34.008l45.11-45.11a12.887 12.887 0 1 1 18.225 18.225l-88.586 88.586a24.047 24.047 0 0 0 34.007 34.008l128.949-128.95a12.464 12.464 0 1 1 17.628 17.626z" data-original="#000000" class="active-path" data-old_color="#000000" fill="#FFFFFF"/><path d="m230.459 162.46a5.978 5.978 0 0 0 4.241-1.76l9.516-9.515a6 6 0 0 0 -8.485-8.486l-9.515 9.516a6 6 0 0 0 4.242 10.242z" data-original="#000000" class="active-path" data-old_color="#000000" fill="#FFFFFF"/><path d="m153.113 239.806a5.98 5.98 0 0 0 4.242-1.757l56.707-56.707a6 6 0 1 0 -8.484-8.486l-56.707 56.707a6 6 0 0 0 4.242 10.243z" data-original="#000000" class="active-path" data-old_color="#000000" fill="#FFFFFF"/><path d="m132.55 260.37a6.009 6.009 0 1 0 -4.24-1.76 6.012 6.012 0 0 0 4.24 1.76z" data-original="#000000" class="active-path" data-old_color="#000000" fill="#FFFFFF"/><path d="m268.717 246.357a6 6 0 0 0 -8.485 0l-15.077 15.077a6 6 0 1 0 8.485 8.485l15.077-15.077a6 6 0 0 0 0-8.485z" data-original="#000000" class="active-path" data-old_color="#000000" fill="#FFFFFF"/><path d="m230.087 276.5-.244.243a6 6 0 0 0 8.469 8.5l.244-.243a6 6 0 0 0 -8.469-8.5z" data-original="#000000" class="active-path" data-old_color="#000000" fill="#FFFFFF"/><path d="m287.864 167.248a5.982 5.982 0 0 0 4.236-1.748l.169-.168a6 6 0 0 0 -8.473-8.5l-.169.169a6 6 0 0 0 4.236 10.248z" data-original="#000000" class="active-path" data-old_color="#000000" fill="#FFFFFF"/><path d="m197.1 252.016a6 6 0 0 0 8.484 0l67.242-67.243a6 6 0 0 0 -8.484-8.485l-67.242 67.242a6 6 0 0 0 0 8.486z" data-original="#000000" class="active-path" data-old_color="#000000" fill="#FFFFFF"/><path d="m295.1 362.262-8.856 8.855a6 6 0 0 0 8.485 8.486l8.855-8.856a6 6 0 1 0 -8.484-8.485z" data-original="#000000" class="active-path" data-old_color="#000000" fill="#FFFFFF"/><path d="m272.067 385.292-.525.525a6 6 0 1 0 8.48 8.49l.526-.525a6 6 0 0 0 -8.481-8.49z" data-original="#000000" class="active-path" data-old_color="#000000" fill="#FFFFFF"/><path d="m278.771 470.934-9.116 9.117a6 6 0 0 0 8.487 8.485l9.116-9.117a6 6 0 0 0 -8.487-8.485z" data-original="#000000" class="active-path" data-old_color="#000000" fill="#FFFFFF"/><path d="m387.445 362.262-80.234 80.238a6 6 0 1 0 8.484 8.485l80.235-80.234a6 6 0 0 0 -8.485-8.485z" data-original="#000000" class="active-path" data-old_color="#000000" fill="#FFFFFF"/><path d="m433.617 316.088-15.305 15.306a6 6 0 0 0 8.487 8.485l15.301-15.305a6 6 0 0 0 -8.487-8.486z" data-original="#000000" class="active-path" data-old_color="#000000" fill="#FFFFFF"/><path d="m201.34 93.581a5.986 5.986 0 0 0 4.243-1.757l19.789-19.79a6 6 0 0 0 -8.486-8.485l-19.786 19.789a6 6 0 0 0 4.243 10.243z" data-original="#000000" class="active-path" data-old_color="#000000" fill="#FFFFFF"/><path d="m76.236 218.685a5.981 5.981 0 0 0 4.243-1.758l94.576-94.575a6 6 0 0 0 -8.485-8.486l-94.576 94.576a6 6 0 0 0 4.242 10.243z" data-original="#000000" class="active-path" data-old_color="#000000" fill="#FFFFFF"/><path d="m36.436 258.485a5.986 5.986 0 0 0 4.243-1.757l9.63-9.63a6 6 0 0 0 -8.487-8.486l-9.63 9.631a6 6 0 0 0 4.244 10.242z" data-original="#000000" class="active-path" data-old_color="#000000" fill="#FFFFFF"/><path d="m442.251 92.608-19.059 19.059a6 6 0 0 0 8.485 8.485l19.058-19.058a6 6 0 1 0 -8.484-8.486z" data-original="#000000" class="active-path" data-old_color="#000000" fill="#FFFFFF"/><path d="m480.854 54.006-9.543 9.543a6 6 0 1 0 8.484 8.485l9.543-9.543a6 6 0 0 0 -8.484-8.485z" data-original="#000000" class="active-path" data-old_color="#000000" fill="#FFFFFF"/><path d="m156.11 268.877a102.606 102.606 0 0 0 -73.031 30.251c-.759.759-1.5 1.531-2.233 2.31a5.993 5.993 0 0 0 -1.435 1.55 103.282 103.282 0 0 0 148.289 143.612c.081-.074.159-.152.237-.231.4-.391.808-.779 1.208-1.178a102.769 102.769 0 0 0 21.119-30.58 6.094 6.094 0 0 0 .42-.937 103.283 103.283 0 0 0 -94.572-144.8zm-69.5 44.135a15.886 15.886 0 1 1 -15.964 27.008 90.645 90.645 0 0 1 15.962-27.008zm134.89 122.809a15.9 15.9 0 1 1 16.813-24.008 90.845 90.845 0 0 1 -16.813 24.008zm21.73-36.519a27.885 27.885 0 1 0 -31.788 45.434 91.28 91.28 0 0 1 -144.38-92.663 27.891 27.891 0 0 0 33.445-44 28.048 28.048 0 0 0 -5.123-4.049 91.249 91.249 0 0 1 113.28-6.493 26.916 26.916 0 0 0 32.443 41.409 91.837 91.837 0 0 1 2.122 60.36zm-24.406-74.034a14.894 14.894 0 0 1 -.824-20.185c.9.828 1.788 1.662 2.656 2.53a90.987 90.987 0 0 1 15.359 20.45 14.937 14.937 0 0 1 -17.192-2.795z" data-original="#000000" class="active-path" data-old_color="#000000" fill="#FFFFFF"/><path d="m148.429 361.726a20.106 20.106 0 1 0 28.432 0 19.971 19.971 0 0 0 -28.432 0zm19.948 19.949a8.107 8.107 0 1 1 2.374-5.732 8.118 8.118 0 0 1 -2.374 5.732z" data-original="#000000" class="active-path" data-old_color="#000000" fill="#FFFFFF"/><path d="m144.106 428.673a11.331 11.331 0 0 0 16.025 16.027 11.331 11.331 0 1 0 -16.025-16.023z" data-original="#000000" class="active-path" data-old_color="#000000" fill="#FFFFFF"/><path d="m99.985 386.327a8.666 8.666 0 1 0 0 12.251 8.665 8.665 0 0 0 0-12.251z" data-original="#000000" class="active-path" data-old_color="#000000" fill="#FFFFFF"/><path d="m160.237 319.6a8.634 8.634 0 0 0 6.126-2.534 8.672 8.672 0 1 0 -6.127 2.535z" data-original="#000000" class="active-path" data-old_color="#000000" fill="#FFFFFF"/></g> </svg>
